# xmcd CD database file
#
# Track frame offsets:
#	150
#	15762
#	27552
#	40459
#	55294
#	66919
#	81319
#	92551
#	106608
#	116831
#	128502
#	140968
#	157772
#	172493
#
# Disc length: 2474 seconds
#
# Revision: 2
# Processed by: cddbd v1.4PL0 Copyright (c) Steve Scherf et al.
# Submitted via: CDex 1.40Release
#
DISCID=bc09a80e
DTITLE=Teodoro and Sampaio - Teodoro and Sampaio
DYEAR=1900
DGENRE=Comedy
TTITLE0=A Solteirona
TTITLE1=Amigo Descarado
TTITLE2=Vírus da Paixão
TTITLE3=A Empregada
TTITLE4=Whisky com Guaraná
TTITLE5=Tadinha da Minha Secretária
TTITLE6=Silicone
TTITLE7=Já Fui Bom Nisso
TTITLE8=Menino Sapeca
TTITLE9=O Beijo do Adeus
TTITLE10=Cachorro Louco
TTITLE11=Sou da Turma do Chapéu - Part. Marco Brasil
TTITLE12=Fogo no Rabo
TTITLE13=Paixão em Dose Dupla
EXTD=ID3G: 57
EXTT0=
EXTT1=
EXTT2=
EXTT3=
EXTT4=
EXTT5=
EXTT6=
EXTT7=
EXTT8=
EXTT9=
EXTT10=
EXTT11=
EXTT12=
EXTT13=
PLAYORDER=
